<svg xmlns="http://www.w3.org/2000/svg" width="160" height="160" viewBox="0 0 160 160" fill="none">
<rect width="160" height="159.094" rx="79.5471" fill="url(#paint0_linear_338_2)"/>
<path d="M113.847 128.942C117.417 128.91 120.317 125.929 120.39 122.213C120.434 118.512 120.434 112.663 120.39 109.19L120.329 106.237C120.304 105.067 118.896 104.559 118.181 105.462L110.16 115.588C106.065 120.796 102.338 125.534 100.659 127.72C100.169 128.358 100.477 128.992 101.262 128.995C103.099 129.002 106.383 129.006 110.028 128.976L113.847 128.942Z" fill="white"/>
<path d="M92.1001 65.7928C92.3244 64.2229 92.4589 55.7008 92.4141 46.5956L92.2795 30.2243L82.5464 30.0897L72.7684 30V82.6127L75.5045 82.3436C83.4883 81.6259 90.7994 74.3597 92.1001 65.7928Z" fill="white"/>
<path d="M91.2479 115.625C92.1898 112.889 92.2795 112.171 92.2795 99.5223V86.2906L90.4854 86.2009C85.6413 85.9318 78.5545 90.3274 75.5942 95.3958C72.9927 99.7914 72.7684 101.541 72.7684 115.939C72.7684 130.964 72.2751 129.619 77.2537 128.408C83.7574 126.883 88.8707 122.218 91.2479 115.625Z" fill="white"/>
<path d="M57.4735 128.497C62.4971 129.529 62.0037 130.74 62.0037 117.688V106.25H39.5771V108.224C39.5771 112.844 42.7617 119.392 46.8882 123.16C49.4897 125.582 53.7059 127.69 57.4735 128.497Z" fill="white"/>
<defs>
<linearGradient id="paint0_linear_338_2" x1="0" y1="0" x2="165.131" y2="153.566" gradientUnits="userSpaceOnUse">
<stop stop-color="#3CB564"/>
<stop offset="1" stop-color="#164626"/>
</linearGradient>
</defs>
</svg>
